<svg xmlns="http://www.w3.org/2000/svg" viewBox="0 0 1555.227 1073.886" width="3110.455" height="2147.772">
  <defs>
    <style>
      @font-face{font-family:&quot;Virgil&quot;;src:url(&quot;https://excalidraw.com/Virgil.woff2&quot;)}@font-face{font-family:&quot;Cascadia&quot;;src:url(&quot;https://excalidraw.com/Cascadia.woff2&quot;)}
    </style>
  </defs>
  <path fill="#fff" d="M0 0h1555.227v1073.886H0z"/>
  <g stroke-linecap="round" fill="none">
    <path d="M753.383 72.264s0 0 0 0m0 0s0 0 0 0m1.38 22.67c7.95-7.48 17.23-17.16 20.49-21.88m-20.86 23.23c4.63-5.99 11.02-11.83 19.89-24.05m-22.88 50.43c11.48-13.21 24.47-29.26 44.12-51.89m-41.47 50.95c12.27-14.4 22.96-28.23 40.9-49.5m-40.34 72.63c17.8-21.9 38.71-45.09 61.17-73.38m-61.98 73.47c23.87-28.19 48.89-56.4 63.05-72.69m-64.36 98.62c31.25-33.41 58.08-65.07 85.84-99.87m-85.78 98.76c32.36-35.88 64.1-72.85 86.59-98.26m-84.25 123.53c23.42-29 48.51-58 105.65-122.85m-106.51 121.3c26.1-32.03 54.68-62.68 105.7-121.86m-104.43 146.8c34.96-44.88 75.63-91.08 123.33-146.24m-125.16 145.21c46.1-52.65 94.05-108.4 127.41-145.65m-127.65 169.71c50.56-54.41 98.23-112.41 147.66-169.33m-147.11 170.67c38.56-42.18 74.13-84.43 147.36-170.18m-146.77 195.9c58.7-68.55 117.77-139.69 169.05-196.59m-170.14 195.66c47.02-54.2 94.57-109.91 170.02-194.35m-171.35 218.86c62.54-70.58 121.17-137.47 192.88-220.07m-192.38 220.55c71.57-83.3 143.05-165.87 191.22-220.55m-189.62 245.07c79.63-95.22 161.75-189.02 210.82-244.51m-211.92 243.53c56.6-64.74 113.35-129.51 212.25-244.43m-210.77 267.82c82.58-96.02 165.96-192.45 231.39-268.12m-232.15 269.31c80.66-92.14 161.05-183.79 233.44-268.56m-232.64 292.78c63.04-72.08 123.77-144.27 252.56-291.56m-253.36 291.42c93.95-107.19 188.07-215.49 253.76-292.1m-253.4 316.28c56.56-64.62 113.97-131.79 275.36-316m-276.15 315.7c83.11-93.63 164.66-188.13 275.38-316.79m-275.27 341.74c115.97-133.77 232.33-266.83 297.69-342.21m-297.84 342.44c119.06-136.39 237.49-272.91 296.8-341.93m-296.33 365.6c79.33-89.88 159.46-182.37 317.75-365.08m-317.79 365.34c92.18-102.91 182.74-207.55 317.73-365.43m-317.08 389.18c128.14-146.23 257.44-293.84 338.2-388.85m-338.92 389.79c78.63-90.86 156.05-179.87 339.28-390.42m-333.16 408c81.92-95.76 165.21-191.12 353.95-407.45m-353.64 406.9c134.34-153.52 268.32-308.14 353.23-406.65m-331.29 405.81c132.13-153.24 265.65-304.55 353.16-406.72m-353.97 407.32c105.51-121.79 211.43-243.23 353.87-406.92m-332.83 407.24c132.26-152.01 263.49-302.09 354.26-406.52m-354.33 406.42c129.83-150.68 259.52-299.39 354.02-407.27m-333.08 407.56c90.12-100.88 179.49-203.6 354.62-407.22m-354.97 407.05c112.36-130.31 225.08-259.73 354.9-407.49m-333.99 407.02c77.94-88.48 156.79-178.89 352.52-405.04m-352 405.93c88.73-103.15 177.18-204.52 352.42-405.3m-330.55 405.66c96.26-112.21 193.61-223.57 329.99-381.51m-330.38 381c119.04-137.5 237.59-273.99 330.94-380.53m-309.49 379.74c63.52-75.09 129.7-151.94 309.64-355.05m-309.52 355.68c107.76-126.49 217.19-252 309.17-356.04m-288.27 355.57c84.18-96.65 167.3-192.67 289.18-330.97m-289.61 331.29c107.57-123.14 213.88-245.51 288.85-331.78m-267.79 331.89c85.69-100.17 171.93-198.41 267.65-307.06m-266.77 307.36c57.2-64.72 113.58-129.75 266.61-306.98m-246.32 305.41c58.27-66.1 116.55-133.08 247.1-281.86m-246.9 282.77c61.53-72.07 124.79-143.86 246.76-282.46m-224.78 282.71c88.34-103.79 177.38-205.23 224.64-258.28m-225.48 258.26c63.44-74.97 126.49-148.49 224.64-258.5m-202.01 258.36c46.63-58.71 96.01-114.04 203.64-234.55m-203.94 233.85c79.9-91.32 160.73-184.59 202.31-232.54m-181.28 233.95c40.48-46.91 80.76-93.87 182.51-208.49m-183.29 206.98c42.69-50.89 87.45-100.4 181.55-208.49m-158.52 209.54c32.67-40.35 69.57-79.74 160.4-186.56m-161.08 186.08c53.95-63.16 107.87-124.49 160.69-184.32m-140.18 185.34c37.98-41.4 72.68-83.74 141.53-161.84m-141.22 161.94c39.54-44.84 78.02-89.28 139.83-162.41m-119.05 161.43c44.29-53.29 91.5-105.06 120-137.28m-120.41 137.71c33.58-37.62 65.9-74.77 118.53-137.11m-98.07 137.85c30.72-37.51 62.59-75.44 100.28-114.6m-99.71 114.15c38.27-45.39 77.28-88.29 97.36-112.18m-74.76 110.83c26.04-30.96 56.41-64.42 74.24-86.46m-75.7 86.76c16.76-17.89 33.74-36.74 76.83-87.31m-54.7 88.06c14.32-19.49 31.76-34.4 56.14-61.5m-56.03 62.23c17.04-20.25 33.12-39.6 54.65-65.11m-33.48 65.44c12.34-12.33 20.27-27.71 32.18-40.98m-32.15 39.8c11.8-15.72 25.84-30.85 34.12-38.93m-12.1 40.25c4.97-6.72 8.31-12.34 12.54-15.1m-13.34 13.27c3.59-5.46 8.6-10.08 11.14-14.18" stroke="#ced4da" stroke-width="2"/>
    <path d="M753.723 71.454c168.32 1.03 336.94 1.48 438.96.02m-439.29 1.1c162.7.83 326.34 1.07 439.6-.78m1.45.72c.09 137.53 1.75 273.85-1.89 401.97m.52-401.94c.11 82.55.44 164.98.58 401.02m-.42 1.44c-109.48.05-221.61.41-438.93-1.75m439.62 1c-95.69 1.56-191.22 1.61-440.57.25m-.93.3c1.29-156.06 1.18-312.65 1.11-402.21m.01 401.1c1.3-88.67 1.62-178.66.25-401.76" stroke="#000" stroke-width="4"/>
  </g>
  <g font-family="Virgil, Segoe UI Emoji" font-size="36">
    <text y="32" style="white-space:pre" transform="translate(829.885 128.644)">
      Book
    </text>
    <text y="77" style="white-space:pre" transform="translate(829.885 128.644)">
      - id
    </text>
    <text y="122" style="white-space:pre" transform="translate(829.885 128.644)">
      - title
    </text>
  </g>
  <path d="M807.213 114.406c53.99.77 108-2.75 187.96-2.11m-187.44 1.5c55.35-.6 112.2-.91 186.8-.92m.34-.51c2.23 37.92-1.43 77.23.35 174.39m-1.38-174.56c-.37 37.76-.52 74.4.46 172.59m1.11.26c-68.2 1.89-131.18-.17-187.52-1.26m186.26 2.44c-37.72-1.44-74.41-1.12-186.73-.44m-.25-1.66c.22-36.9-1.16-71.13-1.99-170.81m2.53 172.94c-.8-51.73-.88-100.52-.11-172.52" stroke="#c92a2a" stroke-width="2" fill="none" stroke-linecap="round"/>
  <text y="32" font-family="Virgil, Segoe UI Emoji" font-size="36" fill="#364fc7" style="white-space:pre" transform="translate(763.582 10)">
    Books service
  </text>
  <g stroke-linecap="round" fill="none">
    <path d="M737.875 662.103s0 0 0 0m0 0s0 0 0 0m-.56 25.68c5.54-7.8 10.02-14.08 22.71-27.52m-21.67 25.31c7.76-8.74 14.73-16.11 19.92-23.75m-21.24 47.52c13.68-12.31 26.31-28.4 41.95-46.03m-41.39 47.97c13.55-15.04 28.02-30.74 42.68-49.49m-42.34 72.97c26.76-29.54 51.5-58.05 63.25-71.19m-63.98 71.31c18.83-20.94 37.07-41.75 63.66-72.28m-61.98 95.98c24.93-27.14 51.55-59.65 82.16-95.94m-83.19 96.32c33.48-38.02 66.69-78.1 85.45-98.08m-84.41 123c30.72-33.32 61.4-69.02 103.57-123.1m-103.62 123.98c35.65-44.97 73.9-86.72 104.54-123.84m-104.41 147.24c45.92-55.86 92.81-108.61 127.62-143.98m-127.77 144.54c38.43-45.05 77.55-91.47 126.25-147.05m-128.37 170.12c34.67-36.74 65.66-72.66 148.32-169.25m-147.07 169.95c46.95-51 93.25-104.28 148.37-169.67m-148.51 192.89c34.29-40.2 71.95-81.46 169.65-191.88m-169.99 193.57c62.76-72.8 125.67-145.78 170.17-195.35m-170.09 219.58c66.97-75.19 133.34-151.9 191.06-219.94m-190.41 219.69c69.89-79.75 139.77-161.81 189.85-219.27m-189.39 244.89c52.55-65.49 106.86-128.32 211.29-244.71m-212.18 243.43c66.9-78.71 134.8-157.76 211.84-242.93m-211.84 267.06c87.14-100.78 175.05-201.85 233.55-267.44m-232.9 268.24c47.78-54.01 94.96-108.62 232.34-268.05m-233.37 292.05c85.99-96.94 170.65-192.49 254.37-293.42m-253.72 293.65c74.66-85.76 148.17-170.4 254.37-293.11m-255.11 316.48c79.1-91.65 159.94-184.46 275.99-316.16m-275.2 316.34c102.1-118.3 203.96-235.97 275.39-316.07m-276.65 340.93c115.28-129.3 227.26-258.56 297.21-341.15m-296.84 342.09c79.11-92.04 158.33-184.34 297.54-342.58m-297.12 366.95c70.49-82.75 140.83-162.71 318.57-366.33m-317.91 365.36c85.12-97.86 168.8-194.26 317.69-365.89m-317.38 390.19c118.56-135.31 235.55-270.62 339.55-390.1m-339.92 390.32c72.73-84.51 147.32-169.81 339.06-390.1m-332.32 407.6c122.81-141.41 246.47-285.35 352.62-406.54m-352.93 406.25c137.28-159.78 275.75-319.63 353.4-407.06m-332.41 406.54c102.96-116.94 205.86-235.78 352.86-406m-353.09 406.56c130.43-150.28 260.21-300.02 353.56-406.86m-331.45 405.78c82.18-94.3 165.12-187.91 352.83-406.45m-353.5 407.56c96.8-113.52 193.66-224.87 354.05-406.85m-333.74 406.95c97.9-112.05 194.43-223.71 355.26-408.03m-354.98 408.11c110.4-125.96 218.95-250.89 354.63-407.39m-333.99 408.03c96.09-109.13 190.8-219.35 354.55-407.35m-354.02 406.99c125.26-143.61 250.23-286.73 354.14-407.33m-332.91 406.84c93.77-108.23 187.4-215.99 354.19-407.7m-354.26 407.79c108.1-122.92 214.44-245.62 354.72-407.45m-333.69 407.78c80.9-91.69 159.43-181.81 355.39-407.16m-355.21 406.82c101.76-115.69 201.89-231.14 354.94-407.74m-332.68 407.89c84.2-99.39 171.24-199 353.79-408.19m-354.18 407.86c133.9-153.03 267.47-306.09 353.95-407.02m-332.82 407.44c111.55-128.37 222.06-255.06 354.54-407.24m-355.07 406.75c83.93-98.74 169.52-196.89 354.31-407.35m-332.87 407.23c105.85-121.56 212.23-243.71 354.02-406.73m-353.7 406.87c80.42-92.91 161.97-186.06 354.4-407.17m-332.88 407.11c110.31-128.37 223.89-256.89 353.32-407.83m-353.83 407.78c78.73-88.63 155.75-177.15 354.43-407.32m-333.78 407.35c114.21-130.74 229.21-262.93 353.71-407.36m-353.39 407.18c114.88-129.6 228.6-261.11 353.74-406.75m-331.83 406.44c94.87-110.66 192.25-221.73 353.58-406.37m-353.57 406.93c113.78-132.13 228.17-264.09 353.05-406.63m-331.96 407.01c113.52-132.93 228.99-262.89 353.31-408.03m-353.72 407.25c136.17-157.25 272.12-314.16 354.15-406.33m-333.31 407.39c132.3-154.04 265.73-307.78 354.6-407.76m-354.71 407.86c99.45-115.61 199.79-231.05 354.71-407.49m-333.46 407.78c107.13-123.3 215.43-246.94 354.73-407.95m-354.52 407.01c112.38-128.61 225.22-257.58 354.31-407.55m-332.56 408.53c97.57-112.77 194.82-225.29 354.55-408.75m-355.44 408.11c120.46-138.17 241.29-277.21 354.65-407.78m-333.31 406.88c136.42-154.99 273.39-310.6 354.99-406.02m-354.67 406.71c97.94-114.52 197.54-228.91 354.22-407.53m-332.9 408.24c132.38-153.94 266.34-309.01 353.8-408.71m-353.88 407.83c124.81-146.22 251.66-291.45 354.1-406.98m-333.63 406.75c104.45-119.02 206.71-238.22 355.86-407.82m-354.87 407.86c73.41-84.98 146.96-169.15 354.42-407.48m-334.12 406.97c126.06-143.71 253.65-290.48 354.85-407.47m-354 408.03c109.56-126.54 219.25-252.69 353.87-407.23m-332.79 407.67c89.37-105.46 180.82-210.68 354.84-408.18m-354.7 408.24c105.31-122.1 210.71-242.96 354.2-408.03m-332.68 408.33c80.71-94.38 161.59-188.11 344.92-397.82m-345.35 397.12c134.5-155.79 270.18-311.82 345.61-397.87m-324.35 398.31c106.05-121.85 212.36-243.5 323.68-373.19m-323.43 372.26c101.07-117.06 203.12-234.13 323.66-372.08m-302.33 371.97c86.81-100.61 176.36-203.47 303.35-347.61m-303.8 347.77c97.3-111.03 193.43-222.31 303.35-348.84m-283.28 349.42c69.98-77.69 138.59-157.29 282.34-324.36m-281.54 324.49c83.75-95.72 167.91-191.55 282.59-324.22m-260.45 325.02c97.45-113.93 195.32-224.71 259.16-300.83m-259.72 300.64c56.65-65.96 112.18-130.89 260.62-300.38m-239.7 299.37c87.02-101.59 175.65-204.38 240.52-274.96m-240.06 275.96c58.04-66.92 114.93-132.24 239.87-276.17m-219.69 274.45c80.53-93.85 163.17-187.72 218.7-249.32m-218.57 250.23c72.39-82.33 145.92-166.52 219.41-250.48m-196.51 251.99c72.34-84.87 146.17-170.16 195.51-229.25m-196.99 227.22c40.96-46.76 81.41-95.29 198.28-226.68m-176.57 225.98c61.72-67.81 121.43-138.54 176.71-199.93m-177.02 201.78c58.44-69.36 117.77-136.28 175.68-202.59m-154.38 200.41c48.56-54.45 97.91-108.74 154.23-175.01m-153.95 175.91c38.21-41.81 77.01-86.17 154.99-177.93m-135.33 178.43c30-34.07 58.85-65.51 136.72-152.41m-135.8 153.13c54.99-62.86 107.32-122.62 135.07-155.13m-112.53 153.59c41.13-49.13 84.15-99.18 110.53-128.5m-111.48 129.08c26.62-31.57 54.38-64.21 112.27-128.9m-91.21 128.01c20.17-27.13 46.29-52.11 93.14-102.22m-93.14 102.99c28.61-34.25 58.12-67.67 90.73-105.21m-67.43 103.6c23.98-29.02 50.14-55.57 66.83-76.28m-68.19 78.01c18.84-22.88 39.72-45.06 70.06-80.63m-49.64 79.88c19.1-19.7 35.21-38.97 48.77-54.31m-48.02 55.7c9.92-11.19 20.94-23.76 47.49-57.37m-25.92 57.97c7.76-11.13 20.02-23.81 26.14-34.33m-28.26 34.32c9.41-10.11 18.63-20.36 29.91-32.18" stroke="#ced4da" stroke-width="2"/>
    <path d="M737.665 661.433c305.83-1.57 611.19-2.17 806.96 1.33m-806.46-.34c282.96 1.28 566.79 1.19 807.28-.64m.39 1.31c-.66 84.1-1.92 167.25-.51 399.75m-.51-400.58c-.43 115.37-.56 229.75.44 401.33m-.11-.28c-264.35 3.41-530.09 3.21-807.48 1.22m807.87-.69c-218.09-1.09-435.12-1.55-807.62.36m-.73-1.25c.98-106.87 2.58-214.83.74-400.33m-.38 400.99c.45-116.15 1.23-232.28.57-401.67" stroke="#000" stroke-width="4"/>
  </g>
  <g font-family="Virgil, Segoe UI Emoji" font-size="36">
    <text y="32" style="white-space:pre" transform="translate(790.86 703.773)">
      extends Book
    </text>
    <text y="77" style="white-space:pre" transform="translate(790.86 703.773)">
      - reviews
    </text>
  </g>
  <g font-family="Virgil, Segoe UI Emoji" font-size="36">
    <text y="32" style="white-space:pre" transform="translate(1241.37 702.157)">
      Review
    </text>
    <text y="77" style="white-space:pre" transform="translate(1241.37 702.157)">
      - body
    </text>
  </g>
  <path d="M765.908 689.001c79.43-.67 160.11-1.35 324.28.34m-322.35.44c98.64.2 198.6.81 323.57-.27m-1.09.86c1.06 32.75.02 67.3-1.21 125.53m1.41-125.96c.4 26.43 1.24 55.13.38 125.5m.98 1.12c-101.94-2.64-204.29-3.36-323.36-.09m322.74-1.34c-78.91-.05-157.42-.63-323.33.37m-1.28-.32c-1.02-36.77-1.02-73.41-.39-125.46m.61 126.95c-.08-31.65-.22-62.36.23-127.76M1197.164 695.4c81.64-.14 160.34-.98 204.19.52m-203.76-.8c78.43.9 156.37.2 202.36-1.43m1.76-.59c-1.25 28-2.47 56.16-.41 128.16m-1.74-125.86c-1.25 37.02.16 72.44-.5 125.11m.74-.43c-43.59.26-87.16 1.55-202.87.37m202.23-.56c-69.91-.65-141.57-.8-201.34 1.36m-1.99.21c.14-39.76-.8-79.24 3.39-125.29m-2.01 124.64c.63-28.7 1.34-56.38.77-126.55" stroke="#c92a2a" stroke-width="2" fill="none" stroke-linecap="round"/>
  <text y="32" font-family="Virgil, Segoe UI Emoji" font-size="36" fill="#364fc7" style="white-space:pre" transform="translate(757.3 595.499)">
    Reviews service
  </text>
  <g stroke-linecap="round" fill="none">
    <path d="M34.07 788.724s0 0 0 0m0 0s0 0 0 0m-19.5 33.55c10.04-10.34 21.73-27.43 57.25-64.24m-58.12 65.34c21.96-22.28 40.72-45.57 58.33-66.36m-53.43 75.17c13.02-17.38 28.07-33.8 71.36-82.07m-71.19 81.89c23.42-27.94 46.57-54.45 72.21-82.72m-71.74 94.38c25.44-27.89 49.99-59.63 90.49-104.36m-92.5 105.86c28.89-34.61 56.55-68.36 91.6-105.5M18.7 855.354c33.28-39.73 70.36-77.81 105.12-119.33M17.87 857.214c28.31-33.23 56.05-65.37 104.4-121.61M16.21 871.924c32.63-42.45 67.99-80.13 121.16-140.17M15.55 869.564c42.62-46.28 82.54-91.4 120.84-137.24M20.43 879.364c40.04-47.14 84.56-95.57 127.77-148.76M20.3 877.924c31.76-36.41 63.24-73.7 128.3-148.77M24.1 885.284c31.3-35.1 61.89-70.28 137.95-159.11M23.64 887.094c43.08-47.17 84.9-96.05 138.81-160.83M25.29 896.474c58.42-70.12 116.55-136.59 153.92-177.13M26.08 894.124c53.61-63.47 109.84-125.83 153.97-174.76M29.29 903.834c48.71-53 97.67-110.51 159.33-183.83m-160.4 185.09c59.64-68.87 120.36-138.17 162.38-185.79M32.98 911.934c43.29-50.33 88.4-98.2 168.59-194.75M34.23 910.994c37.76-42.34 77.01-85.97 166.83-192.83M39.88 917.424c62.41-76.69 128.02-152.41 172.86-198.65M40.13 915.884c44.31-49.58 88.61-100.34 172.14-198.17M46.11 921.384c55.6-62.14 110.76-125.34 176-202.01M44.88 922.304c47.84-55.78 97.3-111.45 177.75-204.86M49.69 928.504c56.03-62.26 110.32-123.51 182.83-211.63M50.99 928.434c57.99-65.81 115.55-132.75 181.89-210.55M55.86 932.194c42.05-43.51 83.24-89.78 185.7-211.26M56.48 933.494c43.88-51.96 87.38-102.82 185.89-214.33M62.12 937.294c63.81-71.68 128.48-144.92 190.17-216.25m-189.3 216.65c52.29-58.33 105.19-118.95 189.43-216.29M68.18 944.174c54.94-60.22 110.44-122.56 193.84-220.48M69.23 943.184c49.75-57.44 99.14-113.02 191.85-220.61M75.91 947.064c77.52-86.24 151.85-170.69 194.97-224.08M76.73 946.804c63.99-71.24 126.61-144.16 193.81-224.31M83.68 949.304c61.96-68.07 121.54-137.49 197.25-225.69M84.76 950.784c74.99-87.56 148.99-172.61 195.36-225.56M91.96 955.314c69.81-81.68 139.53-162.68 196.79-227.76M91.17 955.464c38.7-45.99 79.68-92.77 198.46-229.55M99.82 959.934c63.49-75.4 129.65-152.25 200.86-234.14M98.23 958.784c53.44-62.65 107.84-125.11 201.54-232.22m-193.94 236.99c71.45-88.68 146.69-171.85 204.62-235.53m-204.63 233.65c62.75-68.55 123.96-139.4 203.35-232.7M113.2 967.234c55.47-64.3 111.95-127.12 201.62-235.2m-201.88 235.42c57.78-65.86 115.22-131.71 202.24-234.88m-195.25 235.94c75.33-86.75 150.56-174 202.6-232.87m-202.07 234.01c79.32-89.49 156.86-179.16 202.94-233.71m-195.11 234.68c67.43-77.08 137-152.98 202.76-231.73m-201.46 233.76c79.21-93.33 159.74-185.99 201.78-234.41m-193.52 237.32c61.87-73 125.44-148.43 200.14-234.42m-200.44 232.61c52.39-60.5 104.49-119.45 201.4-231.82m-193.14 236.66c73.94-88.06 151.15-173.96 201.29-234.34m-201.55 233.54c59.67-67.19 117.95-134.18 201.41-232.71m-193.19 234.13c79.66-90.72 158.57-182.06 202.35-230.46m-202.34 231.15c62.48-72 122.23-141.96 201.75-231.02m-191.37 231.42c57.6-67.31 120.24-136.18 199.31-226.96m-200.81 228.49c52-56.65 102.08-114.32 199.26-229.79m-190.11 233.46c77.24-86.11 153.3-173.37 198.81-229.69m-200.66 229.77c68.51-78.04 137.26-157.2 200.63-229.63m-191.6 230.93c63.54-71.03 126.56-144.04 196.16-225.25m-194.64 225.14c54.96-63.27 110.8-126.87 196.8-225.99m-185.96 225.28c59.78-66.39 118.18-135.42 191.32-220.34m-192.51 220.56c71.1-81.95 142.79-163.8 192.74-220.22m-181.78 220.99c50.04-58.58 99.57-115.85 186.9-217.28m-187.75 217.44c73.25-81.42 143.51-162.87 188.73-217.59m-179.19 219.61c70.66-80.76 141.91-161.8 186-214.67m-184.98 214c43.14-49.2 83.93-97.78 184.55-212.5m-175.4 214.5c54.08-64.23 110.63-126.22 182.36-210.38m-182.55 209.63c47.49-54.18 92.7-105.45 181.23-208.76m-169.27 207.5c48.27-53.4 97.43-109.57 177.33-202.94m-177.49 204.02c54.46-64.69 111.45-129.29 175.97-203.65m-165.28 201.83c65.68-74.81 126.21-145.06 169.3-195.91m-168.03 194.98c37.39-44.9 75.77-89.93 169.04-194.17m-157.14 192.68c33.44-38.73 67.49-77.21 161.29-185.36m-161.88 185.48c48.85-54.46 96.88-109.17 161.37-185.93m-149.79 183.45c58.05-66.53 115.35-133.97 155.2-177.3m-155.37 178.94c52.46-58.04 103.27-118.1 155.82-178.12m-143.44 174.68c48.41-50.55 94.65-106.43 146.11-167.19m-145.81 168.65c57.26-68.03 115.43-134.69 147.65-169.39m-134.9 168.9c27.4-33.88 56.83-66.66 138.21-161.89m-138.84 159.61c28.42-30.99 54.51-63.07 139.3-158.98M307 974.204c28.17-34.15 62.24-70.93 124.51-141.99m-124.95 144.56c34.54-39.92 69.55-79.3 124.55-145.07m-110.34 140.28c31.16-37.75 62.97-76.57 110.82-129.66m-111.31 127.63c41.81-46.9 82.61-94.72 111.89-126.46m-98.4 124.07c35.64-42.78 70.8-81.3 98.15-115.04m-95.67 113.56c37.89-43.51 75.33-85.05 96.2-112.38m-84.17 110.78c23.3-25.68 46.63-54.16 87.25-102.44m-85.81 101.57c18.05-21.03 35.8-40.26 85.92-100.03m-63.15 85.61c20.43-19.86 39.78-44.01 56.98-66.09m-58.29 67.61c12.74-14.15 24.34-30.08 58.49-68.96" stroke="#fa5252"/>
    <path d="M312.09 729.114c18.96 3.58 37.79 13.19 52.88 21.85 15.09 8.66 27.28 18.86 37.65 30.12 10.37 11.27 19.82 24.58 24.55 37.49 4.73 12.91 5.16 26.8 3.84 40-1.32 13.19-4.78 26.81-11.74 39.17-6.97 12.36-17.6 24.68-30.05 34.98-12.45 10.3-27.87 19.27-44.68 26.83-16.8 7.57-36.62 14.24-56.13 18.56-19.51 4.33-40.33 7.02-60.91 7.38-20.58.35-42.67-1.61-62.57-5.24-19.89-3.64-39.59-9.51-56.79-16.58-17.2-7.06-32.95-15.99-46.39-25.81-13.45-9.81-25.84-21.14-34.27-33.09-8.43-11.95-13.87-25.56-16.32-38.6-2.44-13.03-2.13-26.75 1.65-39.61 3.77-12.86 11.58-25.8 21.01-37.55 9.43-11.76 21.54-23.38 35.56-32.97 14.02-9.59 30.48-18.12 48.54-24.56 18.06-6.44 39.69-11.51 59.83-14.09s40.77-2.62 61.02-1.38c20.24 1.24 47.52 6.59 60.47 8.83 12.94 2.24 14.21 3.39 17.21 4.61 3 1.22 2.4.89.79 2.72m-197.15-.69c15.52-7.92 37.07-11.73 57.09-14.3 20.01-2.56 42.21-2.58 63.02-1.09 20.81 1.5 42.67 5.08 61.85 10.08s37.36 11.89 53.21 19.91c15.86 8.01 30.36 17.59 41.91 28.19 11.56 10.59 21.47 22.62 27.41 35.38 5.93 12.76 8.63 28.15 8.2 41.19-.42 13.05-4.67 24.59-10.76 37.09-6.08 12.49-14.47 26.7-25.73 37.88-11.26 11.17-25.92 21-41.81 29.17-15.9 8.18-34.36 14.79-53.56 19.87-19.19 5.08-40.96 9.64-61.61 10.61-20.65.96-42.21-1.69-62.28-4.83-20.07-3.13-40.03-7.74-58.12-14.01-18.08-6.27-36.22-14.53-50.37-23.59-14.16-9.05-25.5-19.47-34.55-30.74-9.05-11.26-15.94-24.04-19.75-36.84-3.81-12.8-5.4-26.73-3.13-39.98 2.27-13.26 8.53-27.17 16.73-39.53 8.19-12.36 19.12-24.58 32.46-34.64 13.34-10.05 37.52-20.68 47.57-25.71 10.05-5.02 10.41-4.3 12.74-4.43 2.32-.13-.62 1.9 1.22 3.65" stroke="#a61e4d" stroke-width="2"/>
  </g>
  <text y="54.023" font-family="Virgil, Segoe UI Emoji" font-size="61.619" style="white-space:pre" transform="translate(97.618 804.58)">
    Gateway
  </text>
  <g stroke-linecap="round">
    <path d="M288.411 710.622c26.92-45.13 86.25-205.71 160.24-269.62 74-63.91 236.52-95.05 283.75-113.82m-445.04 382.33c26.84-44.49 86.46-203.85 160.6-267.39 74.14-63.54 236.8-94.55 284.24-113.87" stroke="#000" stroke-width="2" fill="none"/>
    <path d="M708.071 347.182c4.9-3.81 11.58-9.12 25.33-19.71m-24.96 19.86c7.7-6.59 14.74-10.91 23.71-19.34M702.011 327.572c6.63 1.21 14.87.95 31.39-.1m-31.02.25c9.55-.77 18.4.75 29.77.27" stroke="#000" stroke-width="2" fill="none"/>
  </g>
  <g stroke-linecap="round">
    <path d="M447.077 853.095c30.54-1.66 138.15-7.93 181.43-10.18s65.26-3.03 78.26-3.31m-260.78 12.89c30.57-2.1 138.78-9.61 182.19-11.6 43.41-1.99 65.13-.03 78.27-.32M679.537 852.435c4.77-2.74 9.23-5.28 28.49-10.74m-29.87 7.87c9.47-3.43 18.41-5.63 28.89-8.19" stroke="#000" stroke-width="2" fill="none"/>
    <path d="M679.787 831.925c4.82 1.53 9.23 3.26 28.24 9.77m-29.62-12.65c9.23 3.28 18.09 7.78 28.64 12.33" stroke="#000" stroke-width="2" fill="none"/>
  </g>
</svg>